<?xml version="1.0" standalone="no"?>
<!DOCTYPE svg PUBLIC "-//W3C//DTD SVG 20010904//EN"
 "http://www.w3.org/TR/2001/REC-SVG-20010904/DTD/svg10.dtd">
<svg version="1.0" xmlns="http://www.w3.org/2000/svg"
 width="500.000000pt" height="500.000000pt" viewBox="0 0 500.000000 500.000000"
 preserveAspectRatio="xMidYMid meet">

<g transform="translate(0.000000,500.000000) scale(0.100000,-0.100000)"
fill="#000000" stroke="none">
<path d="M0 2495 l0 -2495 2500 0 2500 0 0 2495 0 2495 -2500 0 -2500 0 0
-2495z m2665 2085 c483 -37 927 -259 1243 -620 233 -266 392 -614 438 -959 36
-277 7 -582 -82 -847 -154 -459 -503 -849 -951 -1064 -94 -45 -281 -112 -293
-105 -4 3 -10 16 -12 29 -4 22 1 26 51 41 99 30 266 104 358 159 245 145 444
334 601 574 336 511 376 1191 103 1742 -258 521 -750 885 -1317 974 -225 35
-414 31 -634 -15 -711 -146 -1263 -713 -1392 -1429 -30 -171 -30 -450 0 -620
116 -644 585 -1181 1205 -1380 95 -30 107 -37 107 -57 0 -13 -6 -26 -14 -29
-22 -8 -218 61 -344 121 -512 245 -889 725 -1001 1273 -131 641 67 1272 541
1720 299 283 692 458 1102 492 132 11 158 11 291 0z m194 -630 c32 -15 47 -17
57 -9 7 6 25 9 41 7 l28 -3 3 -137 c2 -130 2 -137 -18 -143 -40 -13 -55 3 -79
77 -30 96 -61 138 -105 138 -67 0 -89 -53 -107 -265 -20 -239 2 -571 45 -653
58 -112 156 -69 191 83 11 50 12 50 51 50 33 0 39 -3 42 -23 2 -13 -6 -55 -18
-93 -23 -76 -83 -154 -126 -165 l-23 -6 21 -29 c55 -74 9 -151 -98 -164 -80
-9 -133 12 -134 53 0 8 16 12 48 12 79 1 113 50 51 73 -26 10 -30 16 -25 39 4
21 2 28 -10 28 -26 0 -114 98 -139 154 -97 220 -95 618 6 831 29 63 83 123
134 149 41 22 111 20 164 -4z m-971 -100 c4 -139 1 -150 -42 -150 -32 0 -35 2
-41 43 -16 93 -45 117 -141 117 l-54 0 0 -211 0 -210 42 3 c40 3 43 5 59 48
15 41 20 45 50 45 l34 0 3 -142 3 -143 -36 0 c-32 0 -37 4 -57 48 -21 42 -27
47 -60 50 l-38 3 0 -215 c0 -205 1 -216 21 -235 15 -13 20 -28 17 -52 l-3 -34
-125 0 -125 0 -3 28 c-2 16 5 38 17 53 21 26 21 37 21 495 0 458 0 469 -20
479 -23 12 -28 75 -7 83 6 3 118 5 247 4 l235 -2 3 -105z m326 93 c3 -10 10
-45 15 -78 6 -33 26 -136 46 -230 20 -93 40 -192 45 -220 9 -53 70 -353 90
-443 7 -33 21 -62 37 -76 18 -17 24 -31 21 -52 l-3 -29 -129 -3 c-134 -3 -145
0 -146 40 0 9 12 28 26 42 25 22 26 28 20 78 -4 29 -11 70 -17 91 l-10 37 -94
0 -93 0 -10 -47 c-26 -121 -26 -120 3 -148 19 -20 25 -35 23 -59 l-3 -31 -75
-3 c-101 -4 -120 2 -120 35 0 15 11 38 25 53 27 28 23 11 131 555 38 190 66
353 65 385 l-1 56 62 31 c74 37 85 39 92 16z m1209 -60 c9 -43 56 -278 106
-522 84 -418 91 -445 116 -465 20 -16 26 -29 23 -51 l-3 -30 -115 -3 c-63 -1
-125 0 -137 3 -32 8 -31 54 2 83 28 25 29 27 14 108 -18 101 -9 94 -114 94
l-93 0 -16 -69 c-21 -93 -20 -103 9 -131 28 -27 34 -75 9 -84 -9 -3 -46 -6
-84 -6 -38 0 -75 3 -84 6 -24 9 -21 71 3 84 27 14 30 27 121 485 57 289 80
424 77 458 l-4 48 66 34 c36 19 71 34 77 35 6 0 18 -35 27 -77z m207 -1343 l0
-30 -1115 0 -1115 0 0 30 0 30 1115 0 1115 0 0 -30z m-2083 -180 c-8 -37 -3
-37 41 -3 41 31 122 42 162 21 48 -26 60 -69 60 -226 0 -140 1 -143 25 -166
14 -13 25 -26 25 -30 0 -3 -49 -6 -110 -6 -67 0 -110 4 -110 10 0 6 9 19 20
30 18 18 20 33 20 148 0 143 -10 175 -53 180 -19 2 -34 -5 -52 -24 -24 -26
-25 -32 -25 -155 0 -116 2 -131 20 -149 11 -11 20 -24 20 -30 0 -6 -42 -10
-105 -10 -85 0 -105 3 -105 15 0 7 8 18 18 24 15 8 17 29 20 157 4 165 0 190
-28 199 -22 7 -27 31 -7 38 6 3 47 6 91 6 l79 1 -6 -30z m683 12 c50 -25 88
-86 96 -154 l7 -58 -142 0 c-157 0 -152 3 -129 -73 23 -76 115 -99 186 -47 36
27 65 21 60 -12 -2 -14 -21 -34 -52 -53 -44 -27 -58 -30 -130 -30 -94 0 -139
21 -178 83 -20 31 -23 50 -23 127 0 101 21 157 72 193 63 44 170 55 233 24z
m547 8 c41 0 43 -1 43 -29 0 -29 -1 -30 -36 -24 -34 6 -36 5 -25 -15 18 -33
13 -123 -8 -155 -32 -50 -58 -61 -153 -65 -84 -4 -89 -6 -94 -29 -9 -36 8 -43
113 -43 151 0 193 -28 193 -127 0 -39 -5 -50 -38 -83 -45 -45 -92 -60 -193
-60 -107 0 -171 21 -194 64 -16 29 -17 38 -5 65 7 18 21 38 31 45 17 11 17 15
4 32 -28 37 -9 119 32 143 16 8 15 12 -10 36 -30 31 -42 79 -34 132 9 50 33
82 80 104 36 17 56 19 146 15 57 -4 124 -6 148 -6z m253 -20 c0 -34 11 -38 31
-13 21 25 73 43 124 43 l45 0 0 -65 0 -65 -39 0 c-30 0 -42 5 -55 25 -19 29
-51 32 -78 8 -16 -14 -18 -33 -18 -154 0 -128 2 -140 20 -151 11 -7 20 -18 20
-25 0 -10 -28 -13 -110 -13 -60 0 -110 3 -110 7 0 4 10 17 22 31 22 22 23 32
23 179 0 149 -1 155 -22 173 -45 36 -28 47 80 49 l67 1 0 -30z m551 7 c48 -32
58 -71 58 -229 1 -127 3 -139 21 -150 42 -26 23 -38 -59 -38 -78 0 -80 1 -83
25 l-3 25 -39 -27 c-32 -24 -49 -28 -102 -28 -56 0 -67 3 -91 28 -23 22 -28
36 -28 76 0 79 52 119 183 141 l72 12 0 36 c0 53 -33 102 -67 102 -31 0 -73
-35 -73 -62 0 -15 -8 -18 -45 -18 l-45 0 0 40 c0 22 1 40 3 40 1 0 34 11 72
25 93 33 179 34 226 2z m-1570 -496 c73 -48 178 -158 424 -441 179 -207 217
-251 278 -320 47 -53 57 -69 52 -90 -5 -20 -4 -23 6 -12 33 32 55 14 192 -150
74 -90 180 -211 235 -269 55 -59 103 -117 107 -129 13 -41 -4 -89 -38 -110
-42 -26 -66 -25 -108 3 -26 17 -39 38 -58 91 -21 59 -31 73 -70 100 -75 51
-130 106 -209 206 -41 52 -88 109 -105 127 -16 17 -30 42 -31 54 -1 31 -18 33
-47 8 -42 -37 -70 -52 -78 -43 -39 44 -331 418 -380 488 -120 170 -220 371
-237 475 -8 51 4 53 67 12z m904 -118 c99 -51 355 -228 355 -245 0 -32 -122
-217 -249 -377 -100 -128 -113 -141 -128 -141 -23 0 -14 34 20 70 84 92 178
220 241 329 56 97 38 93 -30 -7 -74 -106 -261 -342 -273 -342 -35 0 -80 37
-181 152 -63 71 -121 140 -129 152 -13 22 -9 30 48 119 34 53 78 133 97 179
64 152 109 174 229 111z m-455 -768 c57 -69 107 -125 111 -125 4 0 21 12 38
26 33 27 57 26 68 -3 5 -12 -8 -30 -46 -65 -30 -27 -52 -51 -49 -53 2 -2 30
16 61 40 62 49 72 53 81 29 4 -10 -2 -23 -16 -34 -13 -10 -45 -36 -73 -59 -27
-22 -57 -41 -67 -41 -9 0 -56 29 -104 65 -47 36 -94 70 -104 75 -26 14 -50 12
-50 -3 0 -16 -44 -58 -85 -81 -16 -10 -48 -44 -70 -77 -22 -33 -72 -91 -112
-130 -56 -55 -76 -82 -89 -122 -35 -110 -93 -126 -176 -49 -18 17 -28 36 -28
55 0 32 13 48 239 306 69 79 140 160 158 180 l32 36 33 -25 33 -24 -18 28 -18
27 48 56 c26 30 54 63 62 74 7 10 19 19 26 19 7 0 59 -56 115 -125z"/>
<path d="M2079 3382 c-20 -92 -34 -170 -32 -174 2 -5 36 -8 75 -8 68 0 70 1
65 23 -3 12 -17 82 -32 156 -15 74 -30 142 -33 152 -4 10 -22 -50 -43 -149z"/>
<path d="M3292 3449 c-40 -183 -50 -238 -44 -244 3 -3 37 -5 75 -5 67 0 69 1
63 23 -3 12 -17 83 -32 157 -14 74 -29 143 -33 154 -4 12 -15 -18 -29 -85z"/>
<path d="M2085 2317 c-14 -22 -35 -81 -35 -99 0 -5 34 -8 76 -8 l76 0 -7 38
c-12 64 -27 87 -62 90 -25 2 -35 -2 -48 -21z"/>
<path d="M2546 2318 c-10 -14 -16 -44 -16 -81 0 -48 4 -62 25 -82 13 -14 29
-25 35 -25 6 0 22 11 35 25 20 19 25 34 25 77 0 71 -17 102 -57 106 -23 2 -35
-3 -47 -20z"/>
<path d="M2497 1905 c-9 -9 -17 -29 -17 -45 0 -39 41 -60 113 -60 62 0 107 27
107 63 0 43 -14 50 -102 55 -70 4 -87 1 -101 -13z"/>
<path d="M3440 2143 c-60 -22 -81 -99 -36 -128 22 -15 27 -15 55 -1 38 20 51
44 51 95 0 38 -2 41 -27 40 -16 0 -35 -3 -43 -6z"/>
<path d="M2000 1788 c0 -16 35 -101 71 -171 83 -164 260 -412 389 -547 l71
-75 -57 80 c-32 44 -95 130 -139 190 -113 152 -231 334 -282 434 -41 80 -53
101 -53 89z"/>
<path d="M2810 806 c0 -29 130 -173 211 -234 70 -51 83 -67 103 -126 16 -50
41 -86 59 -86 6 0 2 9 -7 19 -9 10 -25 46 -35 79 -24 79 -35 93 -118 151 -38
27 -102 84 -141 127 -39 44 -72 75 -72 70z"/>
<path d="M2806 1704 c-21 -21 -20 -41 3 -54 23 -12 47 -5 55 17 13 32 -34 62
-58 37z"/>
<path d="M2143 723 c-21 -26 -75 -86 -120 -133 -79 -82 -113 -136 -113 -179 0
-11 -10 -27 -22 -36 l-23 -16 25 3 c21 3 27 12 39 58 13 48 24 65 96 135 46
44 95 100 110 125 15 25 37 55 48 68 11 12 15 22 9 22 -6 0 -28 -21 -49 -47z"/>
</g>
</svg>
