<svg width="520" height="200" viewBox="0 0 520 200" fill="none" xmlns="http://www.w3.org/2000/svg"><path fill-rule="evenodd" clip-rule="evenodd" d="M184.005 99.849C184.005 33.283 209.085 0 259.296 0C285.884 0 305.033 8.9492 316.744 26.7973C328.454 44.6455 334.285 69.0295 334.285 99.849C334.285 130.92 328.454 155.354 316.744 173.202C305.033 191.05 285.884 200 259.296 200C209.085 199.949 184.005 166.616 184.005 99.849ZM295.534 99.849C295.534 79.7887 293.071 64.3035 288.145 53.3935C283.22 42.5338 273.62 37.0537 259.296 37.0537C244.82 37.0537 235.07 42.4836 230.144 53.3935C225.219 64.2533 222.756 79.7384 222.756 99.849C222.756 120.11 225.219 135.696 230.144 146.556C235.07 157.415 244.77 162.896 259.296 162.896C273.62 162.896 283.22 157.466 288.145 146.556C293.071 135.696 295.534 120.11 295.534 99.849ZM494.317 126.346V0.855978H452.198L358.009 127.754V160.383H454.762V200.001H473.258L494.367 178.885V160.383H520V126.346H494.317ZM457.828 126.346H398.168L457.828 46.8589V126.346ZM136.358 0.855978V126.346H161.991V160.383H136.358V178.885L115.248 200.001H96.7522V160.383H0V127.754L94.2392 0.855978H136.358ZM40.1584 126.346H99.8181V46.8589L40.1584 126.346Z" fill="#00A881"/><mask id="mask0" mask-type="alpha" maskUnits="userSpaceOnUse" x="0" y="0" width="521" height="201"><path fill-rule="evenodd" clip-rule="evenodd" d="M184.005 99.849C184.005 33.283 209.085 0 259.296 0C285.884 0 305.033 8.9492 316.744 26.7973C328.454 44.6455 334.285 69.0295 334.285 99.849C334.285 130.92 328.454 155.354 316.744 173.202C305.033 191.05 285.884 200 259.296 200C209.085 199.949 184.005 166.616 184.005 99.849ZM295.534 99.849C295.534 79.7887 293.071 64.3035 288.145 53.3935C283.22 42.5338 273.62 37.0537 259.296 37.0537C244.82 37.0537 235.07 42.4836 230.144 53.3935C225.219 64.2533 222.756 79.7384 222.756 99.849C222.756 120.11 225.219 135.696 230.144 146.556C235.07 157.415 244.77 162.896 259.296 162.896C273.62 162.896 283.22 157.466 288.145 146.556C293.071 135.696 295.534 120.11 295.534 99.849ZM494.317 126.346V0.855978H452.198L358.009 127.754V160.383H454.762V200.001H473.258L494.367 178.885V160.383H520V126.346H494.317ZM457.828 126.346H398.168L457.828 46.8589V126.346ZM136.358 0.855978V126.346H161.991V160.383H136.358V178.885L115.248 200.001H96.7522V160.383H0V127.754L94.2392 0.855978H136.358ZM40.1584 126.346H99.8181V46.8589L40.1584 126.346Z" fill="#00A881"/></mask><g mask="url(#mask0)"><path d="M-163.638 406.087L-301.898 408.848L112.464 -173.043L258.971 -173.043L-163.638 406.087Z" fill="url(#paint0_linear)"/><path fill-rule="evenodd" clip-rule="evenodd" d="M69.4062 406.956L195.234 404.443L309.977 247.203C281.649 246.294 205.812 242.292 188.421 239.823L69.4062 406.956ZM339.398 27.8052L354.187 186.087C354.095 186.389 354.001 186.695 353.905 187.006L579.841 -122.609H446.508L339.398 27.8052Z" fill="url(#paint1_linear)"/></g><defs><linearGradient id="paint0_linear" x1="-286.08" y1="490.194" x2="228.262" y2="120.983" gradientUnits="userSpaceOnUse"><stop offset="0.323456" stop-color="#BCBAA8" stop-opacity="0.7"/><stop offset="1" stop-color="#E7E5DE" stop-opacity="0"/></linearGradient><linearGradient id="paint1_linear" x1="83.8021" y1="480.986" x2="551.893" y2="144.976" gradientUnits="userSpaceOnUse"><stop offset="0.323456" stop-color="#BCBAA8" stop-opacity="0.7"/><stop offset="1" stop-color="#E7E5DE" stop-opacity="0"/></linearGradient></defs></svg>
