<?xml version="1.0" encoding="UTF-8" standalone="no"?>
<!-- Generator: Adobe Illustrator 19.0.0, SVG Export Plug-In . SVG Version: 6.00 Build 0)  -->

<svg
   xmlns:dc="http://purl.org/dc/elements/1.1/"
   xmlns:cc="http://creativecommons.org/ns#"
   xmlns:rdf="http://www.w3.org/1999/02/22-rdf-syntax-ns#"
   xmlns:svg="http://www.w3.org/2000/svg"
   xmlns="http://www.w3.org/2000/svg"
   xmlns:sodipodi="http://sodipodi.sourceforge.net/DTD/sodipodi-0.dtd"
   xmlns:inkscape="http://www.inkscape.org/namespaces/inkscape"
   version="1.1"
   id="Layer_1"
   x="0px"
   y="0px"
   viewBox="0 0 1000 512.001"
   xml:space="preserve"
   sodipodi:docname="logoAuxiliarNeopos.svg"
   inkscape:version="0.92.0 r15299"
   width="1000"
   height="512.00098"><metadata
   id="metadata4528"><rdf:RDF><cc:Work
       rdf:about=""><dc:format>image/svg+xml</dc:format><dc:type
         rdf:resource="http://purl.org/dc/dcmitype/StillImage" /><dc:title></dc:title></cc:Work></rdf:RDF></metadata><defs
   id="defs4526" /><sodipodi:namedview
   pagecolor="#ffffff"
   bordercolor="#666666"
   borderopacity="1"
   objecttolerance="10"
   gridtolerance="10"
   guidetolerance="10"
   inkscape:pageopacity="0"
   inkscape:pageshadow="2"
   inkscape:window-width="1920"
   inkscape:window-height="1027"
   id="namedview4524"
   showgrid="false"
   inkscape:zoom="1.1656191"
   inkscape:cx="514.55831"
   inkscape:cy="210.78889"
   inkscape:window-x="-8"
   inkscape:window-y="-8"
   inkscape:window-maximized="1"
   inkscape:current-layer="Layer_1"
   showguides="false" />
<path
   style="fill:#e0e0e0;fill-opacity:1"
   d="m 430.751,223.448 c 0.067,-1.356 0.204,-2.693 0.204,-4.066 0,-44.942 -36.433,-81.374 -81.374,-81.374 -8.933,0 -17.505,1.493 -25.547,4.152 -23.713,-32.081 -61.696,-52.976 -104.653,-52.976 -71.907,0 -130.199,58.293 -130.199,130.199 0,0.684 0.093,1.345 0.103,2.028 -46.478,9.387 -81.477,50.446 -81.477,99.691 0,56.178 45.54,101.718 101.718,101.718 h 292.949 c 56.178,0 101.718,-45.541 101.718,-101.718 -10e-4,-46.356 -31.038,-85.393 -73.442,-97.654 z"
   id="path4485"
   inkscape:connector-curvature="0" />
<path
   style="fill:#f5f5f5;fill-opacity:1"
   d="M 324.035,142.159 C 300.322,110.078 262.339,89.183 219.382,89.183 c -71.907,0 -130.199,58.293 -130.199,130.199 0,0.684 0.093,1.345 0.103,2.028 -46.479,9.387 -81.478,50.446 -81.478,99.691 0,56.178 45.54,101.718 101.718,101.718"
   id="path4487"
   inkscape:connector-curvature="0" />
<path
   style="fill:#44dbbc;fill-opacity:1"
   d="M 402.474,430.626 H 109.526 C 49.133,430.626 0,381.493 0,321.101 0,271.34 33.878,227.811 81.437,215.226 83.639,141.041 144.674,81.375 219.382,81.375 c 22.248,0 43.489,5.158 63.134,15.332 17.069,8.839 32.332,21.374 44.434,36.445 7.431,-1.961 15.02,-2.952 22.633,-2.952 48.652,0 88.331,39.16 89.168,87.616 20.006,7.049 37.887,20.002 50.827,36.932 14.67,19.193 22.424,42.137 22.424,66.352 C 512,381.493 462.867,430.626 402.474,430.626 Z M 219.381,96.99 c -67.487,0 -122.392,54.904 -122.392,122.392 0,0.174 0.02,0.345 0.031,0.515 0.033,0.459 0.062,0.918 0.07,1.385 l 0.107,6.495 -6.368,1.286 c -43.582,8.803 -75.215,47.51 -75.215,92.039 0,51.782 42.128,93.91 93.91,93.91 h 292.949 c 51.782,0 93.91,-42.128 93.91,-93.91 0,-20.759 -6.645,-40.424 -19.215,-56.87 C 465,248.311 447.743,236.491 428.581,230.951 l -5.93,-1.716 0.3,-6.165 c 0.025,-0.514 0.059,-1.024 0.094,-1.537 0.052,-0.777 0.102,-1.511 0.102,-2.15 0,-40.565 -33.001,-73.567 -73.567,-73.567 -7.787,0 -15.557,1.264 -23.096,3.757 l -5.369,1.776 -3.361,-4.547 C 294.357,115.144 258.501,96.99 219.381,96.99 Z"
   id="path4489"
   inkscape:connector-curvature="0" />
<path
   style="fill:#ffffff"
   d="m 151.219,193.408 h -15.615 c 0,-35.251 28.679,-63.929 63.929,-63.929 v 15.615 c -26.641,0.001 -48.314,21.674 -48.314,48.314 z"
   id="path4491"
   inkscape:connector-curvature="0" />
<g
   id="g4493">
</g>
<g
   id="g4495">
</g>
<g
   id="g4497">
</g>
<g
   id="g4499">
</g>
<g
   id="g4501">
</g>
<g
   id="g4503">
</g>
<g
   id="g4505">
</g>
<g
   id="g4507">
</g>
<g
   id="g4509">
</g>
<g
   id="g4511">
</g>
<g
   id="g4513">
</g>
<g
   id="g4515">
</g>
<g
   id="g4517">
</g>
<g
   id="g4519">
</g>
<g
   id="g4521">
</g>
<text
   xml:space="preserve"
   style="font-style:normal;font-weight:normal;font-size:117.24149323px;line-height:83.08451843px;font-family:sans-serif;letter-spacing:0px;word-spacing:0px;fill:#a5a09c;fill-opacity:1;stroke:none;stroke-width:10.99138927px;stroke-linecap:butt;stroke-linejoin:miter;stroke-opacity:1"
   x="523.21423"
   y="302.77277"
   id="text4532"><tspan
     sodipodi:role="line"
     id="tspan4530"
     x="523.21423"
     y="302.77277"
     style="font-style:normal;font-variant:normal;font-weight:bold;font-stretch:normal;font-family:'Microsoft JhengHei UI';-inkscape-font-specification:'Microsoft JhengHei UI Bold';stroke-width:10.99138927px">NeoPos</tspan></text>
</svg>