<svg width="385.703" height="71.302" viewBox="0 0 385.703 71.302" xmlns="http://www.w3.org/2000/svg"><g id="svgGroup" stroke-linecap="round" fill-rule="evenodd" font-size="9pt" stroke="#000" stroke-width="0.25mm" fill="none" style="stroke:#000;stroke-width:0.25mm;fill:none"><path d="M 0.001 66.3 L 0.001 6.6 Q 0.001 3.9 1.901 1.95 A 6.285 6.285 0 0 1 4.551 0.286 A 6.514 6.514 0 0 1 6.501 0 L 7.801 0 A 6.301 6.301 0 0 1 12.173 1.759 A 9.553 9.553 0 0 1 13.301 3 L 51.801 58.6 L 51.801 4.6 Q 51.801 2.7 53.101 1.35 Q 54.401 0 56.301 0 A 4.424 4.424 0 0 1 59.508 1.309 A 5.392 5.392 0 0 1 59.551 1.35 A 4.425 4.425 0 0 1 60.9 4.541 A 5.312 5.312 0 0 1 60.901 4.6 L 60.901 64.3 A 6.172 6.172 0 0 1 59.041 68.811 A 7.586 7.586 0 0 1 58.951 68.9 Q 57.001 70.8 54.301 70.8 L 53.101 70.8 Q 51.501 70.8 50.101 70.05 A 6.986 6.986 0 0 1 48.094 68.465 A 6.668 6.668 0 0 1 47.801 68.1 L 9.101 12.2 L 9.101 66.3 A 4.389 4.389 0 0 1 8.661 68.273 A 4.423 4.423 0 0 1 7.751 69.5 Q 6.401 70.8 4.501 70.8 A 4.571 4.571 0 0 1 2.652 70.434 A 4.385 4.385 0 0 1 1.301 69.5 Q 0.001 68.2 0.001 66.3 Z M 353.501 69.174 A 38.467 38.467 0 0 0 366.401 71.3 A 35.954 35.954 0 0 0 369.395 71.18 Q 372.339 70.934 374.785 70.184 A 16.719 16.719 0 0 0 380.651 67.1 Q 385.701 62.9 385.701 56.5 Q 385.701 51.3 383.051 48.2 Q 380.401 45.1 376.701 43.65 Q 373.001 42.2 367.101 40.7 A 83.935 83.935 0 0 1 365.201 40.26 Q 362.241 39.535 360.221 38.78 A 18.838 18.838 0 0 1 358.401 38 A 6.522 6.522 0 0 1 357.687 37.588 Q 355.601 36.19 355.601 33.6 A 5.356 5.356 0 0 1 357.042 29.882 A 7.908 7.908 0 0 1 358.651 28.55 A 10.559 10.559 0 0 1 361.025 27.44 Q 362.351 27 363.955 26.791 A 24.342 24.342 0 0 1 367.101 26.6 Q 372.701 26.6 378.501 28.4 Q 379.051 28.538 379.459 28.581 A 3.283 3.283 0 0 0 379.801 28.6 A 4.744 4.744 0 0 0 379.906 28.599 A 3.775 3.775 0 0 0 382.651 27.4 Q 383.801 26.2 383.801 24.6 A 3.764 3.764 0 0 0 383.625 23.461 A 4.423 4.423 0 0 0 383.051 22.3 Q 382.301 21.2 380.901 20.8 A 39.532 39.532 0 0 0 379.078 20.181 A 42.161 42.161 0 0 0 366.401 18.3 Q 361.554 18.3 357.863 19.47 A 16.428 16.428 0 0 0 351.951 22.7 Q 346.901 27.1 346.901 34.1 A 15.084 15.084 0 0 0 347.211 37.24 A 10.415 10.415 0 0 0 349.651 42.15 Q 352.401 45.2 356.251 46.7 Q 360.101 48.2 366.001 49.6 A 112.16 112.16 0 0 1 368.6 50.304 Q 371.158 51.032 372.872 51.682 A 20.929 20.929 0 0 1 374.351 52.3 A 5.969 5.969 0 0 1 375.496 52.992 A 3.418 3.418 0 0 1 376.901 55.8 Q 376.901 62.9 365.801 62.9 A 34.764 34.764 0 0 1 362.226 62.725 A 25.966 25.966 0 0 1 358.601 62.1 A 37.542 37.542 0 0 1 358.201 61.998 A 40.633 40.633 0 0 1 352.201 59.9 A 5.076 5.076 0 0 0 351.863 59.765 A 4.281 4.281 0 0 0 350.401 59.5 A 4.691 4.691 0 0 0 350.229 59.504 A 3.604 3.604 0 0 0 347.601 60.7 Q 346.501 61.9 346.501 63.5 A 5.022 5.022 0 0 0 346.505 63.714 Q 346.549 64.736 347.013 65.534 A 4.034 4.034 0 0 0 348.201 66.8 A 35.72 35.72 0 0 0 353.501 69.174 Z M 118.501 48 L 84.601 48 Q 85.401 55 89.801 58.9 A 14.548 14.548 0 0 0 95.463 61.944 Q 98.397 62.8 102.101 62.8 Q 105.858 62.8 108.774 62.16 A 21.27 21.27 0 0 0 109.451 62 Q 112.601 61.2 115.601 59.7 A 3.807 3.807 0 0 1 116.943 59.322 A 4.675 4.675 0 0 1 117.401 59.3 Q 119.001 59.3 120.201 60.4 A 3.604 3.604 0 0 1 121.397 63.029 A 4.691 4.691 0 0 1 121.401 63.2 Q 121.401 65.19 119.274 66.607 A 8.635 8.635 0 0 1 118.801 66.9 A 38.855 38.855 0 0 1 113.965 69.221 A 32.32 32.32 0 0 1 111.101 70.2 A 24.058 24.058 0 0 1 108.013 70.86 Q 106.373 71.108 104.454 71.216 A 56.017 56.017 0 0 1 101.301 71.3 Q 89.101 71.3 82.251 64.35 Q 75.792 57.798 75.423 46.222 A 44.612 44.612 0 0 1 75.401 44.8 A 33.931 33.931 0 0 1 76.629 35.558 A 30.482 30.482 0 0 1 78.001 31.7 Q 80.601 25.7 86.001 22 A 20.695 20.695 0 0 1 93.891 18.789 A 28.637 28.637 0 0 1 99.301 18.3 A 26.702 26.702 0 0 1 105.799 19.059 A 21.156 21.156 0 0 1 112.101 21.75 Q 117.501 25.2 120.301 30.95 A 28.077 28.077 0 0 1 123.09 42.655 A 32.562 32.562 0 0 1 123.101 43.5 Q 123.101 45.4 121.851 46.7 A 4.16 4.16 0 0 1 119.438 47.929 A 5.922 5.922 0 0 1 118.501 48 Z M 223.701 66.3 L 223.701 5.1 Q 223.701 3.2 225.001 1.85 Q 226.301 0.5 228.201 0.5 L 251.001 0.5 A 46.223 46.223 0 0 1 257.377 0.914 Q 262.657 1.65 266.501 3.7 A 24.027 24.027 0 0 1 270.958 6.721 A 17.564 17.564 0 0 1 275.101 11.9 Q 277.701 16.9 277.701 22.7 Q 277.701 28.5 275.101 33.5 A 17.796 17.796 0 0 1 270.411 39.138 A 24.621 24.621 0 0 1 266.501 41.7 Q 261.661 44.282 254.544 44.781 A 50.677 50.677 0 0 1 251.001 44.9 L 232.801 44.9 L 232.801 66.3 A 4.389 4.389 0 0 1 232.361 68.273 A 4.423 4.423 0 0 1 231.451 69.5 Q 230.101 70.8 228.201 70.8 A 4.571 4.571 0 0 1 226.352 70.434 A 4.385 4.385 0 0 1 225.001 69.5 Q 223.701 68.2 223.701 66.3 Z M 150.428 70.488 A 30.392 30.392 0 0 0 157.601 71.3 A 31.839 31.839 0 0 0 161.733 71.039 A 25.136 25.136 0 0 0 171.001 68 Q 176.801 64.7 180.001 58.65 Q 183.201 52.6 183.201 44.8 A 34.748 34.748 0 0 0 182.947 40.551 A 27.546 27.546 0 0 0 180.001 30.95 Q 176.801 24.9 171.001 21.6 A 24.294 24.294 0 0 0 164.96 19.178 A 29.695 29.695 0 0 0 157.601 18.3 Q 149.901 18.3 144.101 21.6 Q 138.301 24.9 135.151 30.95 A 26.813 26.813 0 0 0 132.864 37.114 A 32.921 32.921 0 0 0 132.001 44.8 A 35.125 35.125 0 0 0 132.278 49.278 A 27.785 27.785 0 0 0 135.151 58.65 Q 138.301 64.7 144.101 68 A 24.287 24.287 0 0 0 150.428 70.488 Z M 304.428 70.488 A 30.392 30.392 0 0 0 311.601 71.3 A 31.839 31.839 0 0 0 315.733 71.039 A 25.136 25.136 0 0 0 325.001 68 Q 330.801 64.7 334.001 58.65 Q 337.201 52.6 337.201 44.8 A 34.748 34.748 0 0 0 336.947 40.551 A 27.546 27.546 0 0 0 334.001 30.95 Q 330.801 24.9 325.001 21.6 A 24.294 24.294 0 0 0 318.96 19.178 A 29.695 29.695 0 0 0 311.601 18.3 Q 303.901 18.3 298.101 21.6 Q 292.301 24.9 289.151 30.95 A 26.813 26.813 0 0 0 286.864 37.114 A 32.921 32.921 0 0 0 286.001 44.8 A 35.125 35.125 0 0 0 286.278 49.278 A 27.785 27.785 0 0 0 289.151 58.65 Q 292.301 64.7 298.101 68 A 24.287 24.287 0 0 0 304.428 70.488 Z M 232.801 36.3 L 250.101 36.3 A 42.484 42.484 0 0 0 254.822 36.057 Q 260.026 35.473 263.058 33.49 A 10.083 10.083 0 0 0 264.451 32.4 A 12.714 12.714 0 0 0 268.594 23.151 A 15.908 15.908 0 0 0 268.601 22.7 A 13.297 13.297 0 0 0 267.429 17.074 A 13.079 13.079 0 0 0 264.451 13 A 11.701 11.701 0 0 0 260.686 10.701 Q 257.222 9.333 251.944 9.134 A 49.084 49.084 0 0 0 250.101 9.1 L 232.801 9.1 L 232.801 36.3 Z M 157.601 63 Q 161.701 63 165.451 61.1 A 14.503 14.503 0 0 0 170.344 57.013 A 18.556 18.556 0 0 0 171.651 55.1 Q 173.833 51.449 174.071 46.052 A 30.601 30.601 0 0 0 174.101 44.7 Q 174.101 39.469 172.356 35.733 A 14.802 14.802 0 0 0 171.651 34.4 A 16.909 16.909 0 0 0 168.972 30.957 A 13.666 13.666 0 0 0 165.451 28.45 Q 161.701 26.6 157.601 26.6 Q 153.401 26.6 149.651 28.45 A 13.888 13.888 0 0 0 144.785 32.491 A 17.844 17.844 0 0 0 143.501 34.4 Q 141.344 38.084 141.125 43.463 A 30.428 30.428 0 0 0 141.101 44.7 Q 141.101 49.862 142.712 53.547 A 14.836 14.836 0 0 0 143.501 55.1 Q 145.901 59.2 149.651 61.1 Q 153.401 63 157.601 63 Z M 311.601 63 Q 315.701 63 319.451 61.1 A 14.503 14.503 0 0 0 324.344 57.013 A 18.556 18.556 0 0 0 325.651 55.1 Q 327.833 51.449 328.071 46.052 A 30.601 30.601 0 0 0 328.101 44.7 Q 328.101 39.469 326.356 35.733 A 14.802 14.802 0 0 0 325.651 34.4 A 16.909 16.909 0 0 0 322.972 30.957 A 13.666 13.666 0 0 0 319.451 28.45 Q 315.701 26.6 311.601 26.6 Q 307.401 26.6 303.651 28.45 A 13.888 13.888 0 0 0 298.785 32.491 A 17.844 17.844 0 0 0 297.501 34.4 Q 295.344 38.084 295.125 43.463 A 30.428 30.428 0 0 0 295.101 44.7 Q 295.101 49.862 296.712 53.547 A 14.836 14.836 0 0 0 297.501 55.1 Q 299.901 59.2 303.651 61.1 Q 307.401 63 311.601 63 Z M 84.601 40.6 L 114.101 40.6 A 19.655 19.655 0 0 0 113.5 36.751 A 14.064 14.064 0 0 0 111.551 32.4 A 14.727 14.727 0 0 0 108.598 29.17 A 12.944 12.944 0 0 0 106.001 27.55 A 16.062 16.062 0 0 0 101.1 26.11 A 14.837 14.837 0 0 0 99.301 26 A 15.435 15.435 0 0 0 93.22 27.273 A 18.002 18.002 0 0 0 92.601 27.55 Q 89.301 29.1 87.101 32.4 A 14.2 14.2 0 0 0 85.227 36.619 Q 84.747 38.399 84.609 40.467 A 24.017 24.017 0 0 0 84.601 40.6 Z" vector-effect="non-scaling-stroke"/></g></svg>