<?xml version="1.0" encoding="UTF-8" standalone="no"?>
<svg width="346px" height="110px" viewBox="0 0 346 75" version="1.1" xmlns="http://www.w3.org/2000/svg" xmlns:xlink="http://www.w3.org/1999/xlink" xmlns:sketch="http://www.bohemiancoding.com/sketch/ns">
    <!-- Generator: Sketch 3.4 (15588) - http://www.bohemiancoding.com/sketch -->
    <title>catalog_logo copy</title>
    <desc>Created with Sketch.</desc>
    <defs>
        <linearGradient x1="50.0263566%" y1="100.416431%" x2="50.0263566%" y2="-0.0100905645%" id="linearGradient-1">
            <stop stop-color="#003B5C" stop-opacity="0.5" offset="0%"></stop>
            <stop stop-color="#003B5C" stop-opacity="0.5448" offset="8.962709%"></stop>
            <stop stop-color="#003B5C" offset="100%"></stop>
        </linearGradient>
        <linearGradient x1="50%" y1="136.103993%" x2="50%" y2="-0.0121597096%" id="linearGradient-2">
            <stop stop-color="#003B5C" stop-opacity="0.25" offset="0%"></stop>
            <stop stop-color="#003B5C" stop-opacity="0.3172" offset="8.962709%"></stop>
            <stop stop-color="#003B5C" offset="100%"></stop>
        </linearGradient>
    </defs>
    <g id="Page-1" stroke="none" stroke-width="1" fill="none" fill-rule="evenodd" sketch:type="MSPage">
        <g id="catalog_logo-copy" sketch:type="MSLayerGroup">
            <g id="Catalog" transform="translate(123.000000, 13.000000)" fill="#003B5C" sketch:type="MSShapeGroup">
                <g id="Group">
                    <path d="M0.7,24.3 C0.7,9.5 11.8,0.6 23.5,0.6 C35,0.6 41.9,7.4 43.9,15.3 L36.7,17.7 C35.4,12.2 31.1,7.8 23.5,7.8 C16,7.8 8.5,13.2 8.5,24.2 C8.5,34.8 15.8,40.5 23.5,40.5 C31.1,40.5 35.5,35.6 37,30.5 L44,32.8 C42,40.5 35,47.8 23.5,47.8 C11.3,48 0.7,39.1 0.7,24.3 L0.7,24.3 Z" id="Shape"></path>
                    <path d="M62.6,47.8 C53.4,47.8 47.6,40.6 47.6,31.2 C47.6,22.2 53.6,14.9 62.5,14.9 C68,14.9 70.8,17.8 71.7,19.9 L71.7,15.8 L78.9,15.8 L78.9,41.3 C78.9,43.9 79.2,46.4 79.2,47 L72.1,47 C72,46.3 71.8,44.6 71.8,42.5 C70.3,45.5 67.1,47.8 62.6,47.8 L62.6,47.8 Z M63.4,41.4 C68.3,41.4 71.7,37.2 71.7,31.2 C71.7,25.2 68.4,21.3 63.4,21.3 C58.4,21.3 55,25.1 55,31.2 C55,37.2 58.2,41.4 63.4,41.4 L63.4,41.4 Z" id="Shape"></path>
                    <path d="M95.7,15.8 L102.2,15.8 L102.2,22.4 L95.7,22.4 L95.7,36.9 C95.7,39.7 96.9,40.8 99.7,40.8 C100.7,40.8 101.9,40.6 102.3,40.5 L102.3,46.6 C101.9,46.8 100.4,47.3 97.8,47.3 C92,47.3 88.5,43.8 88.5,38 L88.5,22.3 L82.7,22.3 L82.7,15.7 L84.3,15.7 C87.6,15.7 89.1,13.6 89.1,10.8 L89.1,6.1 L95.8,6.1 L95.8,15.8 L95.7,15.8 Z" id="Shape"></path>
                    <path d="M119.6,47.8 C110.4,47.8 104.6,40.6 104.6,31.2 C104.6,22.2 110.6,14.9 119.5,14.9 C125,14.9 127.8,17.8 128.7,19.9 L128.7,15.8 L135.9,15.8 L135.9,41.3 C135.9,43.9 136.2,46.4 136.2,47 L129.1,47 C129,46.3 128.8,44.6 128.8,42.5 C127.4,45.5 124.1,47.8 119.6,47.8 L119.6,47.8 Z M120.5,41.4 C125.4,41.4 128.8,37.2 128.8,31.2 C128.8,25.2 125.5,21.3 120.5,21.3 C115.5,21.3 112.1,25.1 112.1,31.2 C112,37.2 115.3,41.4 120.5,41.4 L120.5,41.4 Z" id="Shape"></path>
                    <path d="M143.2,47 L143.2,0.7 L150.6,0.7 L150.6,47 L143.2,47 L143.2,47 Z" id="Shape"></path>
                    <path d="M188.1,31.4 C188.1,41 181.3,48 171.9,48 C162.6,48 155.8,41 155.8,31.4 C155.8,21.9 162.6,14.9 171.9,14.9 C181.3,14.9 188.1,21.8 188.1,31.4 L188.1,31.4 Z M180.7,31.4 C180.7,24.9 176.6,21.6 172,21.6 C167.5,21.6 163.3,24.9 163.3,31.4 C163.3,37.9 167.5,41.3 172,41.3 C176.6,41.3 180.7,37.9 180.7,31.4 L180.7,31.4 Z" id="Shape"></path>
                    <path d="M198.2,46.9 C198.7,50.7 201.7,53.6 206,53.6 C211.9,53.6 214.8,50.6 214.8,44.3 L214.8,41 C213.5,43.4 210.3,45.5 205.8,45.5 C197.5,45.5 191.4,39.1 191.4,30.3 C191.4,22 197.2,15.1 205.8,15.1 C210.7,15.1 213.7,17.1 215,19.6 L215,15.6 L222.2,15.6 L222.2,43.8 C222.2,52.1 217.9,59.9 206.2,59.9 C197.9,59.9 192.2,54.8 191.4,48.5 L198.2,46.9 L198.2,46.9 Z M215,30.4 C215,25.1 211.6,21.6 207,21.6 C202.3,21.6 198.9,25.1 198.9,30.4 C198.9,35.8 202.2,39.2 207,39.2 C211.7,39.3 215,35.8 215,30.4 L215,30.4 Z" id="Shape"></path>
                </g>
            </g>
            <g id="Logo" sketch:type="MSShapeGroup" >
                <g id="Logo" featurekey="mugSzh-0" fill="#39e991" ><path xmlns="http://www.w3.org/2000/svg" d="M76.373,57.729c0.108,0,0.213-0.019,0.311-0.054C84.172,57.144,90,50.932,90,43.424c0-7.664-6.075-13.939-13.676-14.29  c0.218-1.057,0.328-2.124,0.328-3.188C76.652,17.153,69.478,10,60.659,10c-6.272,0-11.964,3.705-14.541,9.342  c-2.002-1.239-4.277-1.888-6.653-1.888c-5.397,0-10.201,3.439-11.973,8.465c-0.529-0.055-1.024-0.082-1.498-0.082  C17.175,25.837,10,32.99,10,41.783s7.175,15.946,15.994,15.946H49v7.507H20.446c-3.033,0-5.545,2.242-5.985,5.155  C11.932,70.833,10,73.03,10,75.683c0,2.969,2.416,5.385,5.386,5.385c2.969,0,5.385-2.416,5.385-5.385c0-2.59-1.84-4.758-4.281-5.269  c0.406-1.814,2.022-3.177,3.957-3.177h15.009v12.095c-2.492,0.471-4.385,2.657-4.385,5.284c0,2.969,2.416,5.385,5.385,5.385  c2.97,0,5.386-2.416,5.386-5.385c0-2.626-1.893-4.813-4.386-5.284V67.236h25.09v12.095c-2.492,0.471-4.386,2.657-4.386,5.284  c0,2.969,2.416,5.385,5.386,5.385c2.969,0,5.385-2.416,5.385-5.385c0-2.626-1.893-4.812-4.385-5.284V67.236h15.009  c1.935,0,3.552,1.363,3.958,3.177c-2.441,0.511-4.281,2.679-4.281,5.269c0,2.969,2.416,5.385,5.385,5.385S90,78.651,90,75.683  c0-2.652-1.932-4.85-4.46-5.291c-0.44-2.913-2.952-5.155-5.986-5.155H51v-7.507H76.373z M18.771,75.683  c0,1.866-1.519,3.385-3.385,3.385c-1.867,0-3.386-1.519-3.386-3.385s1.519-3.385,3.386-3.385  C17.252,72.298,18.771,73.816,18.771,75.683z M39.841,84.615c0,1.866-1.519,3.385-3.386,3.385c-1.866,0-3.385-1.519-3.385-3.385  s1.519-3.385,3.385-3.385C38.322,81.23,39.841,82.749,39.841,84.615z M66.93,84.615c0,1.866-1.519,3.385-3.385,3.385  c-1.867,0-3.386-1.519-3.386-3.385s1.519-3.385,3.386-3.385C65.411,81.23,66.93,82.749,66.93,84.615z M88,75.683  c0,1.866-1.519,3.385-3.385,3.385s-3.385-1.519-3.385-3.385s1.519-3.385,3.385-3.385S88,73.816,88,75.683z M12,41.783  c0-7.69,6.277-13.946,13.994-13.946c0.627,0,1.28,0.054,2.055,0.168c0.499,0.065,0.976-0.236,1.11-0.723  c1.274-4.609,5.513-7.828,10.306-7.828c2.363,0,4.611,0.764,6.501,2.208c0.253,0.194,0.582,0.253,0.889,0.166  c0.306-0.09,0.55-0.319,0.659-0.619C49.512,15.701,54.795,12,60.659,12c7.716,0,13.993,6.256,13.993,13.946  c0,1.311-0.192,2.63-0.571,3.922c-0.091,0.311-0.026,0.646,0.174,0.899s0.515,0.396,0.834,0.381l0.236-0.015  c0.108-0.008,0.217-0.016,0.327-0.016C82.461,31.118,88,36.639,88,43.424c0,6.529-5.129,11.919-11.677,12.271  c-0.07,0.004-0.14,0.017-0.206,0.035H25.994C18.277,55.729,12,49.474,12,41.783z"></path></g>
            </g>
        </g>
    </g>
</svg>